<?xml version="1.0" standalone="no"?>
<!DOCTYPE svg PUBLIC "-//W3C//DTD SVG 20010904//EN"
 "http://www.w3.org/TR/2001/REC-SVG-20010904/DTD/svg10.dtd">
<svg version="1.0" xmlns="http://www.w3.org/2000/svg"
 width="1350.000000pt" height="1350.000000pt" viewBox="0 0 1350.000000 1350.000000"
 preserveAspectRatio="xMidYMid meet">
<metadata>
Created by potrace 1.14, written by Peter Selinger 2001-2017
</metadata>
<g transform="translate(0.000000,1350.000000) scale(0.100000,-0.100000)"
fill="#000000" stroke="none">
<path d="M6675 12530 c-140 -17 -241 -51 -343 -116 -124 -79 -203 -172 -317
-372 -38 -68 -78 -137 -89 -155 -101 -175 -288 -499 -304 -527 -10 -19 -66
-116 -124 -215 -58 -99 -199 -342 -313 -540 -114 -198 -249 -432 -300 -520
-51 -88 -102 -176 -112 -195 -11 -19 -103 -177 -203 -350 -101 -173 -194 -335
-208 -360 -14 -25 -42 -72 -62 -105 -20 -33 -44 -77 -54 -98 -85 -183 -3 -409
182 -495 50 -24 69 -27 157 -27 88 1 107 4 155 27 81 40 139 103 216 239 38
66 77 134 88 152 10 18 86 149 169 292 83 143 188 325 234 404 45 79 83 146
83 148 0 2 11 20 24 41 37 59 166 280 166 285 0 2 24 44 53 93 30 49 65 109
79 134 35 63 316 549 401 695 38 66 78 134 87 150 83 145 138 236 155 256 121
146 358 157 488 23 29 -30 199 -308 293 -479 6 -11 24 -42 41 -70 16 -27 32
-57 36 -65 5 -8 13 -24 20 -35 20 -33 59 -99 192 -330 161 -278 163 -282 190
-330 13 -22 71 -123 131 -225 59 -102 119 -206 133 -231 20 -35 183 -316 231
-399 5 -8 32 -55 61 -105 28 -49 69 -119 90 -155 32 -56 339 -588 389 -675 30
-52 165 -285 235 -405 36 -63 75 -140 85 -171 56 -165 -36 -346 -210 -413 -41
-16 -206 -17 -2753 -18 -2125 0 -2718 -3 -2755 -13 -111 -29 -196 -99 -244
-200 -86 -184 -5 -407 180 -493 l57 -27 3015 0 c1658 0 3034 3 3058 7 249 43
484 242 580 492 69 179 64 408 -13 581 -12 28 -79 149 -150 270 -70 121 -139
240 -153 265 -14 25 -71 124 -127 220 -112 192 -356 615 -388 670 -11 19 -86
150 -167 290 -81 140 -157 271 -167 290 -11 19 -103 179 -205 355 -102 176
-194 336 -205 355 -11 19 -34 58 -50 86 -17 27 -41 70 -55 95 -24 42 -266 460
-500 864 -61 105 -122 210 -136 235 -14 25 -45 78 -69 118 -24 41 -43 75 -43
78 0 2 -16 28 -35 58 -19 30 -35 58 -35 61 0 3 -12 24 -26 46 -14 23 -37 62
-51 87 -101 184 -212 298 -361 372 -111 55 -166 69 -337 84 -16 2 -57 0 -90
-4z"/>
<path d="M2318 5378 c-76 -10 -144 -43 -198 -98 -37 -37 -253 -392 -360 -592
-8 -15 -69 -121 -135 -234 -66 -114 -131 -225 -144 -248 -13 -22 -51 -88 -84
-146 -33 -58 -107 -186 -165 -285 -166 -286 -174 -301 -275 -475 -52 -91 -186
-322 -297 -515 -112 -192 -211 -366 -222 -385 -10 -19 -23 -42 -28 -50 -100
-164 -113 -439 -31 -653 26 -66 102 -183 158 -242 82 -88 199 -163 308 -200
126 -42 141 -43 1444 -41 1178 1 1250 3 1316 20 138 37 264 107 359 200 73 73
114 128 174 236 10 20 217 377 459 795 242 418 465 803 495 855 30 52 137 236
237 409 100 173 192 332 205 355 13 23 122 210 242 416 119 206 224 393 231
414 58 164 -25 360 -182 432 -65 30 -82 34 -160 35 -149 2 -247 -74 -365 -283
-17 -29 -156 -265 -171 -288 -21 -34 -323 -548 -347 -590 -13 -25 -28 -49 -32
-55 -8 -10 -261 -439 -284 -480 -6 -11 -19 -31 -28 -45 -8 -14 -201 -340 -428
-725 -227 -385 -433 -734 -457 -775 -114 -191 -99 -184 -383 -184 -118 0 -231
3 -251 7 -67 13 -119 85 -124 167 -2 36 5 48 365 670 524 906 743 1283 759
1313 9 16 21 36 26 45 6 10 57 98 114 197 57 99 123 212 146 250 170 286 199
359 184 469 -24 179 -174 309 -354 308 -124 -1 -209 -35 -279 -113 -32 -36
-214 -336 -312 -514 -6 -11 -82 -141 -169 -289 -86 -148 -165 -283 -175 -300
-16 -29 -138 -240 -250 -431 -25 -44 -81 -141 -124 -215 -43 -74 -100 -171
-126 -215 -26 -44 -91 -156 -145 -250 -54 -93 -117 -201 -140 -240 -23 -38
-53 -90 -67 -115 -14 -25 -49 -85 -78 -135 -78 -133 -84 -145 -122 -210 -19
-33 -48 -82 -65 -110 -16 -27 -32 -57 -36 -65 -4 -8 -31 -53 -59 -99 -79 -126
-78 -125 -363 -125 -262 0 -282 5 -331 75 -22 32 -28 52 -28 92 0 49 10 69
159 327 87 151 166 287 176 302 11 15 19 29 19 31 0 3 36 67 81 143 44 77 95
164 112 194 16 30 92 161 167 290 185 319 322 556 353 610 14 25 70 122 124
215 55 94 134 231 177 305 43 74 82 142 87 150 108 178 132 234 135 321 4 93
-16 160 -65 226 -88 116 -210 162 -373 141z"/>
<path d="M7837 5375 c-213 -35 -351 -237 -307 -450 28 -140 146 -261 279 -288
42 -9 287 -12 882 -12 923 1 885 -2 984 73 209 158 205 470 -7 616 -104 71
-71 69 -966 70 -507 1 -827 -3 -865 -9z"/>
<path d="M11108 5385 c-2 -2 -23 -5 -47 -9 -180 -24 -314 -192 -306 -382 2
-61 23 -139 46 -169 6 -9 150 -257 214 -370 13 -22 68 -117 122 -211 55 -94
103 -177 106 -185 4 -8 16 -27 26 -44 16 -26 137 -234 191 -330 9 -16 30 -52
46 -80 16 -27 37 -63 47 -80 142 -246 210 -363 217 -375 5 -8 31 -53 58 -100
28 -47 59 -101 70 -120 10 -19 79 -138 152 -264 73 -126 138 -247 146 -269 40
-113 11 -243 -74 -333 -46 -48 -74 -67 -138 -90 -46 -16 -209 -17 -3109 -19
l-3060 -2 -53 -20 c-106 -42 -189 -128 -225 -233 -25 -73 -17 -201 18 -273 50
-103 140 -176 251 -202 76 -18 6623 -18 6727 0 366 64 627 364 642 740 7 186
-26 292 -166 527 -32 55 -59 101 -59 103 0 2 -27 49 -60 104 -33 56 -60 106
-60 111 0 6 -4 10 -9 10 -5 0 -11 6 -13 13 -2 10 -374 658 -538 937 -79 135
-210 363 -210 367 0 2 -16 29 -35 59 -19 30 -35 56 -35 58 0 4 -73 132 -100
176 -5 8 -49 85 -98 170 -390 674 -380 659 -452 712 -46 35 -124 64 -182 70
-26 3 -49 4 -50 3z"/>
</g>
</svg>
